<svg xmlns="http://www.w3.org/2000/svg" version="1.1" xmlns:xlink="http://www.w3.org/1999/xlink" xmlns:svgjs="http://svgjs.dev/svgjs" width="100%" height="100%" viewBox="0 0 1000 600"><rect width="1000" height="600" x="0" y="0" fill="#295f2d"/><g><circle r="166.66666666666666" cx="366.45604960123694" cy="388.67833044045665" fill="#ffe67c" transform="matrix(0.6256586651128391,0,0,0.625658665112839,0,56.820024439110625)"/><path d="M411.89111383823894 417.5692550815385L429.53817161679655 424.1869017484976Q424.9119464005427 436.5337147428703 416.30287828287834 445.4797926445002Q407.69381016521396 454.4258705461301 396.1129284980355 459.05209576238394Q384.53204683085704 463.67832097863777 370.86783195371 463.67832097863777L370.86783195371 463.67832097863777Q350.1264116132873 463.67832097863777 335.02224584101486 454.51778230539344Q319.9180800687424 445.3572436321491 311.6460217350436 428.5986661931369Q303.3739634013447 411.8400887541248 303.3739634013447 388.6783254197679L303.3739634013447 388.6783254197679Q303.3739634013447 365.516562085411 311.6460217350436 348.7579846463989Q319.9180800687424 331.99940720738664 335.02224584101486 322.83886853414236Q350.1264116132873 313.67832986089803 370.4082731573934 313.67832986089803L370.4082731573934 313.67832986089803Q384.53204683085704 313.67832986089803 395.56145794245555 317.53862374995754Q406.5908690540541 321.398917639017 414.4340058445241 328.99695640478484Q422.24650538190645 336.62563242364047 426.903367851248 347.655043535239L426.903367851248 347.655043535239L409.4707708443048 355.8045528565868Q404.5994476033488 343.2432790905996 395.4695461831923 336.7175441829038Q386.30900750994795 330.2224465282958 371.75631229325546 330.2224465282958L371.75631229325546 330.2224465282958Q356.9585190518608 330.2224465282958 345.71464716864784 337.1771029792204Q334.47077528543497 344.13175943014505 328.19013840244133 357.12195473936106Q321.87886426636 370.14278730166484 321.87886426636 388.6783254197679L321.87886426636 388.6783254197679Q321.87886426636 406.99940276625654 327.85312861847586 420.11214708782364Q333.7967557175039 433.2248914093908 344.8261668291024 440.1795478603154Q355.8555779407009 447.13420431124 370.86783195371 447.13420431124L370.86783195371 447.13420431124Q385.4205271704025 447.13420431124 396.2354775103866 439.7506263170865Q407.0504278503707 432.3670483229331 411.89111383823894 417.5692550815385L411.89111383823894 417.5692550815385Z " fill="#295f2d" transform="matrix(0.6256586651128391,0,0,0.625658665112839,0,56.820024439110625)"/><path d="M629.2220242810714 430.1676889390439L616.4560668918258 430.1676889390439L616.4560668918258 313.67832776217824L629.2220242810714 313.67832776217824L629.2220242810714 362.3485403086769Q633.3665278084827 355.16768927722626 640.2149320329218 351.9761999299149Q647.0854993778282 348.7847105826035 655.2193645893788 348.7847105826035L655.2193645893788 348.7847105826035Q663.8408184512131 348.7847105826035 670.8665276393916 352.06485241178467Q677.8922368275701 355.3228311204984 682.1032297163837 362.03825662213274Q686.3363857256649 368.7315190032997 686.3363857256649 379.1038593820617L686.3363857256649 379.1038593820617L686.3363857256649 430.1676889390439L673.5704283364192 430.1676889390439L673.5704283364192 383.5808097164846Q673.5704283364192 370.3272636769554 667.9188326172219 365.1410934875744Q662.2450737775573 359.95492329819336 653.9560667227347 359.95492329819336L653.9560667227347 359.95492329819336Q648.1936554012002 359.95492329819336 642.4534072001333 362.6588239952211Q636.7131589990662 365.3848878127162 632.9675916400688 371.5240721821972Q629.2220242810714 377.6632565516781 629.2220242810714 387.880455087168L629.2220242810714 387.880455087168L629.2220242810714 430.1676889390439ZM761.8239740377661 400.64641247641356L761.8239740377661 378.616270731778Q761.8239740377661 369.6845331833996 757.0367400167991 364.8308098010302Q752.2495059958319 359.95492329819336 743.4729102907256 359.95492329819336L743.4729102907256 359.95492329819336Q735.1617401154356 359.95492329819336 729.4214919143685 363.5453488139187Q723.6812437133015 367.135774329644 720.9773430162738 375.1144976979225L720.9773430162738 375.1144976979225L710.6050026375118 368.7315190032997Q713.7964919848232 359.7997814549213 722.39578272619 354.2811644585287Q731.0172365880242 348.7847105826035 743.7831939772698 348.7847105826035L743.7831939772698 348.7847105826035Q752.404647839104 348.7847105826035 759.4303570272825 351.7324056047731Q766.4560662154611 354.6801006269426 770.5119172610026 360.6641431531515Q774.5899314270116 366.6481856793603 774.5899314270116 376.0675118780224L774.5899314270116 376.0675118780224L774.5899314270116 414.69783085277066Q774.5899314270116 420.43807905383767 780.6404633146228 420.43807905383767L780.6404633146228 420.43807905383767Q783.6768108186621 420.43807905383767 786.5580164794294 419.64020671700985L786.5580164794294 419.64020671700985L785.9152859858737 429.68010028876023Q782.7237966385621 431.27584496241593 777.6262789310509 431.27584496241593L777.6262789310509 431.27584496241593Q772.994186753356 431.27584496241593 769.3151087557609 429.52495844548815Q765.6581938786333 427.7740719285604 763.5748605546938 424.18364641283506Q761.4915272307545 420.59322089710975 761.4915272307545 415.16325638258695L761.4915272307545 415.16325638258695L761.4915272307545 413.5675117089312L764.6830165780659 414.0551003592149Q762.776988217866 420.2829372105656 758.144896040171 424.18364641283506Q753.5128038624761 428.0843556151045 747.772555661409 429.92389461390206Q742.032307460342 431.7634336126996 736.4472011025471 431.7634336126996L736.4472011025471 431.7634336126996Q729.4214919143685 431.7634336126996 723.3709600267573 429.3698166022161Q717.2982650186788 426.97619959173255 713.7078395029534 422.1003130888957Q710.1174139872281 417.24658970652627 710.1174139872281 410.06573867507564L710.1174139872281 410.06573867507564Q710.1174139872281 401.1340011266973 716.1014565134369 395.30510044376047Q722.0854990396458 389.4761997608237 732.768123104952 387.39286643688433L732.768123104952 387.39286643688433L764.3727328915218 381.1871927060011L764.3727328915218 391.71467492803515L738.6856762697585 396.9673344788185Q730.8620947447521 398.5630791524742 727.027874903885 401.44428481324144Q723.1936550630178 404.3254904740087 723.1936550630178 409.4230081815199L723.1936550630178 409.4230081815199Q723.1936550630178 414.3653840457591 727.1165273857548 417.4903840316681Q731.0172365880242 420.59322089710975 738.1980876194748 420.59322089710975L738.1980876194748 420.59322089710975Q742.8301797971699 420.59322089710975 747.0633358064509 419.396412391868Q751.296491815732 418.1996038866262 754.6431230063155 415.71733439427294Q757.989754196899 413.25722802238704 759.8957825570988 409.51166066338965Q761.8239740377661 405.7439301839248 761.8239740377661 400.64641247641356L761.8239740377661 400.64641247641356ZM811.6023426076367 331.2315191723909L824.3682999968823 327.72974613853535L824.3682999968823 408.13754719440834Q824.3682999968823 414.0551003592149 827.7149311874657 416.9141428995147Q831.0837254985167 419.7953485602819 836.3363850493 419.7953485602819L836.3363850493 419.7953485602819Q840.968477226995 419.7953485602819 844.3151084175785 418.1996038866262Q847.661739608162 416.6038592129705 850.3878034256571 413.8999585159428L850.3878034256571 413.8999585159428L854.8425906396126 424.58258258124897Q851.185675762485 427.92921377183245 846.1546474163761 429.85740525249975Q841.1236190702671 431.7634336126996 834.5854985323723 431.7634336126996L834.5854985323723 431.7634336126996Q828.5128035242936 431.7634336126996 823.2601439735104 429.6136109273579Q817.9853213022595 427.4637882420162 814.8824844368179 422.74304358245143Q811.7574844509088 418.04446204335414 811.6023426076367 410.3760223616198L811.6023426076367 410.3760223616198L811.6023426076367 331.2315191723909ZM795.6448958710798 350.3804552562592L853.4241509296965 350.3804552562592L853.4241509296965 361.395526128577L795.6448958710798 361.395526128577L795.6448958710798 350.3804552562592ZM908.6324840140899 323.2527958041124L908.6324840140899 323.2527958041124Q922.5065974267075 323.2527958041124 932.5686541189255 328.9265546437771Q942.6085476906758 334.5781503629744 949.3239731923101 345.59322123529216L949.3239731923101 345.59322123529216L938.6191860065366 353.88222829011477Q932.7237959621975 343.68719287509225 925.299150605605 339.4540368658112Q917.8745052490125 335.22088085653013 907.3470230269784 335.22088085653013L907.3470230269784 335.22088085653013Q898.9028741288837 335.22088085653013 893.3842571324911 337.61449786701365Q887.8878032565659 340.0081148774972 885.3390444028103 343.90882407976665Q882.7681224285873 347.8316964025036 882.7681224285873 352.77407226674273L882.7681224285873 352.77407226674273Q882.7681224285873 358.35917862453766 886.2920585829102 362.5923346338188Q889.7938316167658 366.82549064309984 900.3213138387998 369.21910765358336L900.3213138387998 369.21910765358336L923.1493279202633 374.3166253610946Q938.3089023199923 377.6632565516781 944.2929448462012 384.44517141471476Q950.2769873724101 391.2270862777515 950.2769873724101 401.28914296996936L950.2769873724101 401.28914296996936Q950.2769873724101 410.2208805183477 945.2459590263011 417.1579372246565Q940.2149306801923 424.0949939309653 931.1280512885418 427.92921377183245Q922.0411718968912 431.7634336126996 909.740640037462 431.7634336126996L909.740640037462 431.7634336126996Q898.260143635328 431.7634336126996 889.550037291624 428.66059674725796Q880.8620940683874 425.53559676134887 874.6342572170367 420.2829372105656Q868.406420365686 415.0081145393148 864.4170586815468 408.46999400142L864.4170586815468 408.46999400142L875.5872713971366 399.360951489302Q878.6236189011759 405.43364649738066 883.410852922143 410.06573867507564Q888.1980869431101 414.69783085277066 894.9800018061468 417.24658970652627Q901.7619166691835 419.7953485602819 910.5385123742898 419.7953485602819L910.5385123742898 419.7953485602819Q918.6723775858404 419.7953485602819 924.6564201120491 417.80066771821225Q930.6404626382581 415.80598687614264 933.8319519855695 411.90527767387323Q937.0234413328808 407.98240535113626 937.0234413328808 402.39729899334134L937.0234413328808 402.39729899334134Q937.0234413328808 397.29978128583014 933.6768101422974 393.2217671198211Q930.3301789517138 389.16591607427955 921.0659945963239 387.0825827503402L921.0659945963239 387.0825827503402L896.3319521546606 381.49747639254525Q886.6023422694544 379.2590012253338 880.6182997432455 375.35829202306434Q874.6342572170367 371.43541970032743 871.9968458814113 366.0941076676743Q869.3815976662534 360.75279563502124 869.3815976662534 354.5249587836705L869.3815976662534 354.5249587836705Q869.3815976662534 346.08080988557583 874.0801792053506 338.9664482155275Q878.7787607444479 331.87424966594665 887.6440089314241 327.55244117479583Q896.5092571184002 323.2527958041124 908.6324840140899 323.2527958041124ZM987.4667035167747 463.6783270858135L974.7007461275291 463.6783270858135L974.7007461275291 350.3804552562592L985.8709588431191 350.3804552562592L986.979114866491 369.8396750266717L985.2282283495633 367.62336297992766Q987.2893985530352 362.03825662213274 991.456065200914 357.8051006128517Q995.6005687283252 353.5719446035706 1001.4959587726644 351.17832759308703Q1007.413511937471 348.7847105826035 1014.2619161619099 348.7847105826035L1014.2619161619099 348.7847105826035Q1023.9915260471162 348.7847105826035 1032.2140437405365 353.7270864468427Q1040.4365614339567 358.6694623110819 1045.378937298196 367.9336466664719Q1050.3213131624352 377.1978310218619 1050.3213131624352 390.2740720976516L1050.3213131624352 390.2740720976516Q1050.3213131624352 403.1951713301692 1045.312447936794 412.52584504696154Q1040.281419590685 421.8786818842213 1031.9702494153948 426.8210577484605Q1023.681242360572 431.7634336126996 1013.7964906320935 431.7634336126996L1013.7964906320935 431.7634336126996Q1003.8895757831478 431.7634336126996 996.4649304265554 426.8875471098628Q989.0624481904304 422.03382372749337 985.8709588431191 414.52052588903115L985.8709588431191 414.52052588903115L987.4667035167747 412.1269088785476L987.4667035167747 463.6783270858135ZM1012.5110296449822 420.59322089710975L1012.5110296449822 420.59322089710975Q1024.323972854128 420.59322089710975 1030.9507458738926 412.30421384228714Q1037.5553557731896 403.99304366699704 1037.5553557731896 390.2740720976516L1037.5553557731896 390.2740720976516Q1037.5553557731896 376.55510052830607 1031.1058877171645 368.243930353016Q1024.6342565406721 359.95492329819336 1012.9986182952659 359.95492329819336L1012.9986182952659 359.95492329819336Q1005.3301786135315 359.95492329819336 999.5899304124646 363.70049065719076Q993.8496822113975 367.44605801618815 990.658192864086 374.22797287922486Q987.4667035167747 381.0098877422616 987.4667035167747 390.2740720976516L987.4667035167747 390.2740720976516Q987.4667035167747 399.360951489302 990.5695403822164 406.2315188342085Q993.672377247658 413.10208617911496 999.3461360873226 416.84765353811235Q1005.0198949269875 420.59322089710975 1012.5110296449822 420.59322089710975ZM1087.5110293068 430.1676889390439L1074.7450719175545 430.1676889390439L1074.7450719175545 313.67832776217824L1087.5110293068 313.67832776217824L1087.5110293068 362.3485403086769Q1091.655532834211 355.16768927722626 1098.5261001791177 351.9761999299149Q1105.3745044035568 348.7847105826035 1113.5305327355745 348.7847105826035L1113.5305327355745 348.7847105826035Q1122.1298234769415 348.7847105826035 1129.15553266512 352.06485241178467Q1136.1812418532986 355.3228311204984 1140.4143978625798 362.03825662213274Q1144.6475538718605 368.7315190032997 1144.6475538718605 379.1038593820617L1144.6475538718605 379.1038593820617L1144.6475538718605 430.1676889390439L1131.881596482615 430.1676889390439L1131.881596482615 383.5808097164846Q1131.881596482615 370.3272636769554 1126.2078376429504 365.1410934875744Q1120.5340788032859 359.95492329819336 1112.245071748463 359.95492329819336L1112.245071748463 359.95492329819336Q1106.504823547396 359.95492329819336 1100.764575346329 362.6588239952211Q1095.0021640247946 365.3848878127162 1091.2565966657971 371.5240721821972Q1087.5110293068 377.6632565516781 1087.5110293068 387.880455087168L1087.5110293068 387.880455087168L1087.5110293068 430.1676889390439ZM1206.881596144433 431.7634336126996L1206.881596144433 431.7634336126996Q1195.5340784651034 431.7634336126996 1186.6909933985949 426.8210577484605Q1177.8257452116186 421.8786818842213 1172.8833693473794 412.52584504696154Q1167.9409934831401 403.1951713301692 1167.9409934831401 390.2740720976516L1167.9409934831401 390.2740720976516Q1167.9409934831401 377.35297286513395 1172.8833693473794 368.02229914834163Q1177.8257452116186 358.6694623110819 1186.4471990734528 353.7270864468427Q1195.068652935287 348.7847105826035 1206.0837238076047 348.7847105826035L1206.0837238076047 348.7847105826035Q1217.2539365231946 348.7847105826035 1225.1440074096035 353.5719446035706Q1233.034078296012 358.35917862453766 1237.200744943891 366.581696317958Q1241.345248471302 374.8042140113783 1241.345248471302 384.9992494264008L1241.345248471302 384.9992494264008Q1241.345248471302 387.7253132438959 1241.1901066280302 389.96378841110743Q1241.0128016642907 392.18010045785144 1240.7025179777465 393.95315009524666L1240.7025179777465 393.95315009524666L1176.230000537963 393.95315009524666L1176.230000537963 382.6056324159173L1235.1174116199513 382.6056324159173L1228.579291082057 383.8910934030288Q1228.579291082057 372.41059700089477 1222.2628017488364 366.1827601495441Q1215.9684755360831 359.95492329819336 1205.7512770005933 359.95492329819336L1205.7512770005933 359.95492329819336Q1197.927695475587 359.95492329819336 1192.2760997563896 363.5453488139187Q1186.602340916725 367.135774329644 1183.499504051283 373.9176891926807Q1180.3745040653744 380.6996040557174 1180.3745040653744 390.2740720976516L1180.3745040653744 390.2740720976516Q1180.3745040653744 399.69339829631366 1183.5659934126857 406.5418025207527Q1186.757482759997 413.4123698656591 1192.5863834429338 417.00279538138443Q1198.4152841258706 420.59322089710975 1206.549149337421 420.59322089710975L1206.549149337421 420.59322089710975Q1215.3257450425276 420.59322089710975 1220.8443620389198 417.24658970652627Q1226.3408159148453 413.8999585159428 1229.6874471054289 408.13754719440834L1229.6874471054289 408.13754719440834L1239.7495037976464 414.0551003592149Q1236.7131562936074 419.48506487373777 1232.0145747545098 423.474426557877Q1227.2938300949454 427.4637882420162 1220.9995038821921 429.6136109273579Q1214.6830145489716 431.7634336126996 1206.881596144433 431.7634336126996ZM1278.3576596519274 430.1676889390439L1265.5917022626818 430.1676889390439L1265.5917022626818 350.3804552562592L1275.964042641444 350.3804552562592L1277.7149291583714 363.4566963320489Q1281.0837234694227 356.1207034573262 1287.5331915254478 352.4637885801986Q1294.0048227019402 348.7847105826035 1303.2468439368627 348.7847105826035L1303.2468439368627 348.7847105826035Q1305.330177260802 348.7847105826035 1307.8124467531552 349.0949942691477Q1310.2725531250412 349.4274410761593 1312.0234396419692 350.3804552562592L1312.0234396419692 350.3804552562592L1309.8071275952252 362.03825662213274Q1308.03407795783 361.395526128577 1305.972907754358 361.0630793215654Q1303.8895744304186 360.75279563502124 1300.0553545895514 360.75279563502124L1300.0553545895514 360.75279563502124Q1295.1129787253121 360.75279563502124 1290.0819503792031 363.63400129578844Q1285.0730851535618 366.49304383608825 1281.704290842511 372.321944519025Q1278.3576596519274 378.1508452019618 1278.3576596519274 387.0825827503402L1278.3576596519274 387.0825827503402L1278.3576596519274 430.1676889390439ZM1364.0624464995185 431.7634336126996L1364.0624464995185 431.7634336126996Q1352.714928820189 431.7634336126996 1343.8718437536809 426.8210577484605Q1335.0065955667046 421.8786818842213 1330.0642197024654 412.52584504696154Q1325.1218438382261 403.1951713301692 1325.1218438382261 390.2740720976516L1325.1218438382261 390.2740720976516Q1325.1218438382261 377.35297286513395 1330.0642197024654 368.02229914834163Q1335.0065955667046 358.6694623110819 1343.6280494285388 353.7270864468427Q1352.249503290373 348.7847105826035 1363.2645741626907 348.7847105826035L1363.2645741626907 348.7847105826035Q1374.4347868782806 348.7847105826035 1382.3248577646896 353.5719446035706Q1390.214928651098 358.35917862453766 1394.3815952989767 366.581696317958Q1398.526098826388 374.8042140113783 1398.526098826388 384.9992494264008L1398.526098826388 384.9992494264008Q1398.526098826388 387.7253132438959 1398.3709569831162 389.96378841110743Q1398.1936520193767 392.18010045785144 1397.8833683328326 393.95315009524666L1397.8833683328326 393.95315009524666L1333.410850893049 393.95315009524666L1333.410850893049 382.6056324159173L1392.2982619750373 382.6056324159173L1385.7601414371425 383.8910934030288Q1385.7601414371425 372.41059700089477 1379.443652103922 366.1827601495441Q1373.1493258911692 359.95492329819336 1362.9321273556793 359.95492329819336L1362.9321273556793 359.95492329819336Q1355.108545830673 359.95492329819336 1349.4569501114756 363.5453488139187Q1343.7831912718107 367.135774329644 1340.6803544063691 373.9176891926807Q1337.5553544204604 380.6996040557174 1337.5553544204604 390.2740720976516L1337.5553544204604 390.2740720976516Q1337.5553544204604 399.69339829631366 1340.7468437677717 406.5418025207527Q1343.938333115083 413.4123698656591 1349.7672337980198 417.00279538138443Q1355.5961344809566 420.59322089710975 1363.7299996925071 420.59322089710975L1363.7299996925071 420.59322089710975Q1372.5065953976132 420.59322089710975 1378.0252123940058 417.24658970652627Q1383.5216662699313 413.8999585159428 1386.868297460515 408.13754719440834L1386.868297460515 408.13754719440834L1396.9303541527324 414.0551003592149Q1393.8940066486934 419.48506487373777 1389.1954251095958 423.474426557877Q1384.474680450031 427.4637882420162 1378.1803542372782 429.6136109273579Q1371.8638649040577 431.7634336126996 1364.0624464995185 431.7634336126996Z " fill="#ffe67c" transform="matrix(0.6256586651128391,0,0,0.625658665112839,0,56.820024439110625)"/></g></svg>